<?xml version="1.0" encoding="UTF-8"?>
<svg id="Layer_2" data-name="Layer 2" xmlns="http://www.w3.org/2000/svg" viewBox="0 0 512 197.21">
  <defs>
    <style>
      .cls-1 {
        fill: #2a3a86;
      }
    </style>
  </defs>
  <g id="Layer_1-2" data-name="Layer 1">
    <path class="cls-1" d="M512,197.2h-59.64v-78.28h59.64v78.28h0ZM452.36,112.26v-22.34h59.64v22.34h-59.64ZM452.36,84.93v-16.96h59.64v16.96h-59.64ZM452.36,63.81v-15.72h59.64v15.72h-59.64ZM452.36,43.93v-12.82h59.64v12.82h-59.64ZM452.36,27.78v-8.68h59.64v8.68h-59.64ZM452.36,16.6V7.09h59.64v9.51h-59.64ZM452.36,5.42V0h59.64v5.42h-59.64ZM379.1,0v5.42h56.96V0h-56.96ZM379.1,7.09v9.51h56.96V7.09h-56.96ZM379.1,19.1v8.68h56.96v-8.68h-56.96ZM379.1,31.11v12.82h56.96v-12.82h-56.96ZM379.1,48.09v15.72h56.96v-15.72h-56.96ZM379.1,67.97v16.96h56.96v-16.96h-56.96ZM379.1,89.93v22.34h56.96v-22.34h-56.96ZM379.1,118.92v6.07s-1.39,12.5-9.7,12.5-9.17-12.5-9.17-12.5v-6.07s-124.33,0-124.33,0l3.25,6.07h-30.37l3.51-6.07H0v78.28h54.15v-68.05l72.21,68.05h51.39l19.46-27.77h55.55l15.26,27.77h65.27l-2.76-16.66s2.76,16.67,40.32,16.67c41.77,0,65.22-25.29,65.22-49.69v-28.59h-56.96ZM360.25,112.26l.02-22.34h-58.93v8.68l-4.16-8.68h-142.1l-9.26,21.18v-21.18H0v22.34h216.13l8.42-14.56,7.79,14.56h127.91ZM360.28,84.93l.02-16.96h-58.95v16.96h58.94ZM360.3,63.81l.02-15.72h-58.98v15.72h58.96ZM360.32,43.93v-12.82s-58.98,0-58.98,0v12.82h58.98ZM360.34,27.78v-8.68s-59,0-59,0v8.68h59ZM360.35,16.6V7.09s-59.01,0-59.01,0v9.51h59.01ZM360.36,5.42V0S301.34,0,301.34,0v5.42h59.02ZM294.79,84.93l-8.12-16.96h-121.99l-7.42,16.96h137.53ZM284.68,63.81l-7.53-15.72h-103.78l-6.87,15.72h118.18ZM275.16,43.93l-6.14-12.82h-88.22l-5.61,12.82h99.96ZM267.42,27.78l-4.16-8.68h-77.21l-3.8,8.68h85.17ZM262.07,16.6l-4.56-9.51h-66.21l-4.16,9.51h74.92ZM256.72,5.42l-2.6-5.42h-59.71l-2.37,5.42h64.68ZM145.81,84.93v-16.96h-52.79v2.86l-3.14-2.86H0v16.96h145.81ZM145.81,63.81v-15.72h-52.79v15.72h52.79ZM145.81,43.93v-12.82h-52.79v12.82h52.79ZM145.81,27.78v-8.68h-52.79v8.68h52.79ZM145.81,16.6V7.09h-52.79v9.51h52.79ZM145.81,5.42V0h-52.79v5.41h52.79ZM85.3,63.81l-17.31-15.72H0v15.72h85.3ZM63.4,43.93l-14.12-12.82H0v12.82h63.4ZM45.61,27.78l-9.56-8.68H0v8.68h45.61ZM33.3,16.6l-10.48-9.51H0v9.51h33.3ZM20.99,5.42L15.02,0H0v5.42h20.99Z"/>
  </g>
</svg>