<?xml version="1.0" encoding="UTF-8"?>
<svg id="Layer_2" data-name="Layer 2" xmlns="http://www.w3.org/2000/svg" viewBox="0 0 512 512">
  <defs>
    <style>
      .cls-1 {
        fill: #fff;
      }

      .cls-2 {
        fill: #0072d3;
      }

      .cls-3 {
        fill: #f23d4e;
      }
    </style>
  </defs>
  <g id="Layer_1-2" data-name="Layer 1">
    <g>
      <path id="Shape" class="cls-1" d="M256,0C114.6,0,0,114.6,0,256s114.6,256,256,256,256-114.6,256-256c0-67.87-27.05-133.04-75-181C389.04,27.05,323.87,0,256,0"/>
      <path id="Shape-2" data-name="Shape" class="cls-2" d="M102.55,324.12c-2.71-11.07-4.92-22.13-6.39-33.44,1.48.25,2.71.74,4.18.74h3.93c2.95,5.9,11.07,8.61,30.74,12.79,7.62,1.72,15.25,4.18,22.62,7.13,6.39,2.71,12.79,4.67,19.67,6.15,0,2.21.74,4.43.98,6.64.74,2.21.25,4.67-1.23,6.39s-3.69,2.71-6.15,2.46h-57.79c-5.41.25-10.08-3.69-10.82-8.85h.25ZM287.72,97.88h-63.94c-6.39.49-12.3,4.43-14.51,10.57l-14.51,49.68c-.98,2.46-.49,5.41.98,7.62s4.18,3.44,6.89,3.44h106.73c2.71,0,5.41-1.23,6.89-3.44s1.97-5.16.98-7.62l-15-49.68c-2.21-6.15-7.87-10.08-14.51-10.57ZM195.5,97.88h-41.81c-6.15.49-11.8,3.93-15,9.1-1.48,2.21-2.71,4.43-4.18,6.89,1.23,1.23,1.97,2.46,2.71,3.93l1.72,3.69h3.2c6.15,0,12.79-12.79,12.79-12.79,0,0,13.77,16.97,8.36,29.26-2.95,7.38-9.59,12.3-17.46,12.79h-2.21c-1.48,1.23-3.2,2.21-4.92,3.2,0,5.16-1.72,10.08-4.67,14.51h38.36c5.66-.25,10.33-4.18,11.56-9.84,4.18-17.71,9.59-35.17,16.23-52.38,0,0,4.67-9.1-4.92-9.1v.74h.25ZM425.68,96.89h-34.43c-14.02,0-7.38,8.85-7.38,8.85,11.8,15.98,20.9,33.94,26.8,52.63,1.48,5.9,6.89,9.84,12.79,9.84h48.2c12.79,0,8.12-11.8,8.12-11.8-7.13-18.69-17.71-36.15-30.99-51.15-6.64-5.41-15.25-8.36-24.1-7.87l.98-.49ZM399.12,178.54h-58.04c-2.21-.25-4.67.74-6.15,2.46s-1.97,4.18-1.23,6.39c2.71,16.23,4.43,32.46,4.92,48.94,5.41-2.46,11.07-3.93,16.97-3.93,4.18.74,8.61-.25,12.05-2.46,1.48-2.46,3.44-4.43,5.9-5.66v-1.72c2.46-6.89,8.36-11.8,15.49-12.79,1.23-.25,2.46-.25,3.69,0,6.15.25,11.8,2.71,16.23,6.89,1.97,1.72,3.93,3.44,6.15,4.92-1.23-11.31-3.2-22.38-5.9-33.44-.74-5.41-5.41-9.1-10.82-8.85l.74-.74ZM409.45,324.12c2.71-11.31,4.92-22.62,6.15-33.94-2.21-9.59-7.13-18.44-14.26-25.58l-2.46-2.21c-7.87-1.72-15.98-.98-23.36,1.48-14.02,6.39-27.05,15-38.36,25.58,0,3.93,0,7.62-.98,11.56,10.08,1.23,19.67,5.16,27.54,11.56,11.8,9.59,25.82,15.74,40.82,18.44,2.46-1.72,3.93-4.18,4.43-7.13l.49.25ZM316,413.39h42.54c6.15-.49,11.8-3.93,15-9.1,10.33-15,18.69-30.74,25.58-47.71-15.74-1.97-30.99-5.66-45.74-11.07h-1.72c-7.13,1.72-14.51,2.95-21.89,3.2-.49.98-.74,1.97-.98,2.71-4.18,17.71-9.84,35.17-16.48,52.38,0,0-4.67,9.1,4.92,9.1l-1.23.49ZM138.94,403.8c3.2,5.41,8.85,8.85,15,9.1h41.81c9.59,0,4.92-9.1,4.92-9.1-6.64-16.97-12.05-34.43-16.23-52.38-1.23-5.41-6.15-9.34-11.56-9.84h-55.58c-10.33,0-5.9,9.84-5.9,9.84,6.89,18.44,15.98,35.9,27.05,52.13h.49v.25ZM426.67,179.27c-8.36,0-6.15,8.85-6.15,8.85,3.44,14.02,5.66,28.03,6.89,42.3l12.79,9.84c3.93,3.2,7.62,6.64,11.07,10.33h39.59c2.95.25,5.9-.98,7.87-3.2s2.95-5.16,2.46-8.12c-.98-16.72-3.69-33.2-8.36-49.18-1.97-6.64-8.12-11.07-15-10.82h-51.15ZM170.91,179.27h-47.46l-2.21,1.48c-5.9,2.95-12.3,4.67-18.69,4.92-.49.74-.74,1.48-.74,2.21-2.21,9.84-3.93,19.67-5.16,29.76v1.48c.98,4.18,2.95,8.12,5.9,11.31l2.95,3.44c1.48-2.21,3.44-4.18,5.41-5.9-1.48-1.97-2.46-3.93-2.95-6.39-.74-3.69.25-7.62,2.21-10.82l7.62-10.82c2.95-4.18,7.62-6.64,12.79-6.64,2.71,0,5.41.74,7.87,1.97l1.97-1.97c4.67-3.69,10.57-5.66,16.48-5.16,6.15,0,12.05,1.23,17.71,3.44l2.71,1.48.74-4.92c.74-2.21.25-4.67-1.23-6.39s-3.69-2.71-6.15-2.46h.25ZM324.12,190.34c-.74-6.39-6.39-11.31-12.79-11.31h-110.91c-6.39,0-12.05,4.92-12.79,11.31l-.98,11.07c3.2,3.69,5.41,8.12,6.89,12.79,3.44-1.48,7.38-1.97,11.07-1.48,3.93,0,7.87.74,11.31,2.21,5.16,1.72,75,31.97,84.6,35.9h17.95c1.72,0,3.44-.49,4.92-1.23l.74-.98c1.23-1.48,2.46-2.71,3.69-4.18.74-1.72.98-3.44.98-5.16l-4.67-48.94ZM395.19,169.19c10.33,0,5.9-9.84,5.9-9.84-6.89-18.44-15.98-35.9-27.05-52.13-3.2-5.41-9.1-9.1-15.49-9.1h-41.81c-9.59,0-4.92,9.1-4.92,9.1,6.64,16.97,12.05,34.43,16.48,52.38,1.23,5.41,5.9,9.34,11.56,9.84h55.33v-.25ZM277.39,318.46c.98,2.46,1.97,5.16,2.71,7.87,4.43-3.2,9.84-4.92,15.49-4.92.74,0,8.85,0,11.07.74,11.07.98,12.79-5.66,12.79-5.66,1.48-3.69,3.44-7.13,6.15-10.33l.74-8.12c-14.51,10.08-31.23,16.97-48.69,20.17h-.25v.25ZM200.91,332.97h16.72c-1.72-2.46-3.44-4.43-4.18-5.9l-4.67-7.13c-7.13,0-14.26-.74-20.66-1.23v2.46c.74,6.39,6.39,11.31,12.79,11.31v.49ZM224.52,413.63h63.94c6.39-.49,12.3-4.43,14.51-10.57l14.51-47.95c-11.31,7.62-23.85,13.03-37.13,15.98-4.18.98-8.61,1.23-12.79,1.23-11.8.25-23.36-4.92-30.74-14.02l-11.56-15.49h-22.62c-2.71-.25-5.41,1.23-6.89,3.44s-1.97,5.16-.98,7.62l15,49.68c2.46,6.15,8.12,10.33,14.51,10.57l.25-.49ZM211.49,432.32c-1.97-5.41-6.89-9.34-12.79-9.84h-36.15c-12.79,0-1.97,10.33-1.97,10.33,20.17,24.35,45.25,44.51,73.53,59.02,10.57,4.67,11.8,4.43,7.62-2.21-6.15-9.34-23.12-42.3-29.76-57.05h-.49v-.25ZM283.54,422.24h-55.09c-5.9,0-8.61,4.67-5.9,10.57,6.89,17.21,14.76,33.94,23.85,50.17,4.43,7.38,5.41,8.36,9.59,8.36s5.16-.98,9.59-8.36c9.1-16.23,16.97-32.95,23.85-50.17,2.71-5.66,0-10.57-5.9-10.57ZM231.16,496.02c-31.97-14.76-60-36.64-81.89-63.94-5.41-6.15-13.03-9.59-21.15-9.84h-37.63s-14.02,0-5.66,9.84c35.17,34.18,79.68,56.81,127.88,65.41,12.79,2.21,32.46,4.67,18.69-1.48h-.25ZM351.91,432.08s10.57-10.33-1.97-10.33h-36.64c-5.9.49-10.82,4.43-12.79,9.84-6.64,14.76-23.61,47.71-29.76,57.05-4.43,6.89-2.95,6.89,7.62,2.21,28.28-14.26,53.36-34.43,73.53-58.77ZM490.85,261.41h-30c8.85,10.57,16.48,22.13,22.87,34.43l1.72,3.69c.74,1.48.74,3.2,0,4.67s-1.97,2.71-3.69,3.2l-3.93,1.23c-3.93,1.72-7.62,4.18-10.57,7.13-4.18,4.18-9.84,6.39-15.74,6.39-4.43,0-8.85-1.23-12.79-2.95-3.2-.49-6.64-.74-9.84-.74h-6.39c0,1.97-.98,3.93-1.23,5.9-.49,1.97-2.21,8.85,6.15,8.85h51.15c6.89.25,13.28-4.18,15-10.82,4.67-15.98,7.38-32.46,8.36-49.18.49-2.95-.49-5.9-2.46-8.12s-4.92-3.44-7.87-3.2l-.74-.49ZM87.05,414.12h33.69c14.02,0,7.38-8.85,7.38-8.85-11.8-15.98-20.9-33.94-26.8-52.63-1.48-5.9-6.89-9.84-12.79-9.84h-48.69c-12.79,0-8.12,11.8-8.12,11.8,7.13,18.69,17.71,36.15,30.99,51.15,6.64,5.41,15.25,8.36,24.1,7.87v.49h.25ZM421.5,422.24h-37.38c-8.12.25-15.74,3.69-20.9,9.84-21.89,27.3-49.92,49.18-81.89,63.94-13.77,6.15,5.9,3.69,18.69,1.48,48.2-8.61,92.71-31.48,127.88-65.41,7.38-9.84-6.39-9.84-6.39-9.84ZM472.65,342.56h-8.61c1.23,1.97,1.97,4.18,1.97,6.64,0,11.31-12.79,11.31-22.87,11.31-11.56-.25-23.12-.98-34.43-2.21-5.9,16.72-14.02,32.71-24.59,46.97,0,0-6.64,8.85,7.38,8.85h33.69c8.61.49,17.21-2.21,24.1-7.87,13.28-15,23.85-32.46,30.99-51.15,0,0,4.67-11.8-8.12-11.8l.49-.74ZM300.02,79.68c1.97,5.41,6.89,9.34,12.79,9.84h36.15c12.79,0,1.97-10.33,1.97-10.33-20.17-24.35-45.25-44.51-73.53-59.02-10.57-4.67-11.8-4.43-7.62,2.21,6.15,9.34,23.12,42.3,29.76,57.05h.49v.25ZM85.33,332.73c8.36,0,6.15-8.85,6.15-8.85-3.2-13.03-5.41-26.07-6.64-39.35-7.13-5.9-11.56-14.26-12.79-23.36H21.15c-2.95,0-5.9.98-7.87,3.2-1.97,2.21-2.95,5.16-2.46,8.12.98,16.72,3.69,33.2,8.36,49.18,1.97,6.64,8.12,11.31,15,10.82h51.15v.25ZM228.46,89.76h55.09c5.9,0,8.61-4.67,5.9-10.57-6.89-17.21-14.76-33.94-23.85-50.17-4.43-7.38-5.41-8.36-9.59-8.36s-5.16.98-9.59,8.36c-8.85,16.23-16.97,32.95-23.85,50.17-2.71,5.66,0,10.57,5.9,10.57ZM281.58,15.74c31.97,14.76,60,36.64,81.89,63.94,5.16,5.9,12.54,9.59,20.41,10.08h37.63s14.26,0,5.66-9.84c-35.17-34.18-79.68-57.05-127.88-65.41-12.79-2.21-32.46-4.67-18.69,1.48l.98-.25ZM160.09,79.92s-10.57,10.33,1.97,10.33h36.15c5.9-.49,10.82-4.43,12.79-9.84,6.64-14.76,23.61-47.71,29.76-57.05,4.43-6.89,2.95-6.89-7.62-2.21-28.28,14.51-53.36,34.43-73.53,59.02h.49v-.25ZM21.15,250.59h48.94c-.74-6.39-2.71-12.79-6.15-18.2-6.89-12.79-6.89-19.92-10.57-25.58l-2.21-4.92c-2.95-6.64-2.95-14.02,0-20.66v-1.97h-16.97c-6.89-.25-13.28,4.18-15,10.82-4.67,15.98-7.38,32.46-8.36,49.18-.49,2.95.49,5.9,2.46,8.12s4.92,3.44,7.87,3.2h0ZM90.5,89.76h37.38c8.12-.25,15.74-3.69,20.9-9.84,21.89-27.3,49.92-49.18,81.89-63.94,13.77-6.15-5.9-3.69-18.69-1.48-48.2,8.61-92.71,31.48-127.88,65.41-7.13,9.84,6.39,9.84,6.39,9.84ZM39.35,169.44h17.46v-1.48c.49-4.43,1.72-8.61,3.69-12.79l-.98-3.2c-2.71-9.59-.25-19.92,6.64-27.05,5.16-5.9,12.54-9.34,20.41-8.85,5.9,0,12.79,3.93,19.43,3.44.98,0,1.97-.25,2.95-.74,3.93-5.16,9.59-8.36,15.98-8.85h.74l2.71-2.95s6.64-8.85-7.38-8.85h-33.94c-8.61-.49-17.21,2.21-24.1,7.87-13.28,15-23.85,32.46-30.99,51.15,0,0-4.67,11.8,8.12,11.8l-.74.49Z"/>
      <path id="Shape-3" data-name="Shape" class="cls-3" d="M59.02,197.23c-1.97-3.93-1.97-8.85,0-12.79,2.95-7.13,6.15-7.38,7.62-15.49.49-11.31,9.1-20.9,20.41-22.62,15.49-2.71,27.05,20.17,41.07,5.41.98,8.61-3.93,16.72-11.8,20.17-8.85,5.16-19.92,5.66-29.26,1.23-4.18-1.72-11.8-8.36-14.51,0-2.46,8.36,12.79,5.41,10.08,19.43-7.87-4.92-18.2-3.2-24.1,4.18M108.94,142.63c4.18-2.95,7.38-7.13,9.1-12.05,3.93-8.61,9.84-8.85,9.84-8.85-2.46-4.92-7.62-1.72-12.79,3.44s-14.51,2.95-18.44,2.95c-7.87-3.44-16.97-1.72-23.12,3.93-4.43,4.67-6.15,11.56-4.67,17.71,11.31-9.84,27.05-12.05,40.58-6.15M137.47,144.6c5.66-4.67,12.79.74,16.72-9.84,1.72-3.44,1.72-7.62,0-11.07-5.9,9.1-10.08,8.36-19.18,7.38-9.1-1.23-9.84,2.71-14.26,8.61-1.97,2.95-4.43,5.66-7.62,7.38,5.16,4.92,18.44,2.21,24.35-2.46M70.58,197.47c-4.92,2.95-7.13,9.1-5.41,14.76s7.13,9.34,13.03,8.85c6.15-2.21,9.1-9.1,7.13-15.25-1.97-6.39-8.36-10.08-14.76-8.36M80.66,258.95c1.23,11.07,9.34,20.41,20.41,22.62,8.61.74,13.53-3.44,12.79-14.26-.74-11.07-12.79-22.87-19.43-30.99-3.93-4.43-6.64-9.84-7.87-15.98-3.69,5.41-10.57,7.62-16.48,4.92,6.64,9.84,10.08,21.39,9.84,33.44M122.71,233.13c-4.43,0-8.61,2.71-10.33,6.89-1.72,4.18-.74,8.85,2.46,12.05s7.87,4.18,12.05,2.46c4.18-1.72,6.89-5.9,6.89-10.33,0-5.9-4.92-11.07-11.07-11.07M150.99,237.31l6.64-11.31c1.72-2.95.74-6.89-1.97-8.61l-21.89-13.77c-2.71-1.48-6.15-.98-8.12,1.23l-7.38,10.82c-.74.98-.98,2.21-.74,3.44s.98,2.21,1.97,2.95l25.58,16.48c.98.74,2.46.98,3.69.74s2.46-1.23,2.95-2.21M136.98,254.52c-1.72,1.48-3.69,2.46-5.9,2.71,16.48,5.41,7.38,0,22.62-.98,14.26,1.48,27.54-7.87,30.74-21.89,5.16-13.03-.25-28.03-12.79-34.67-7.62-3.69-16.48-3.69-23.85,0-1.23.74-1.72,1.97-1.72,3.44.25,1.48,1.23,2.46,2.46,2.95,0,0,8.61,5.41,14.02,9.59,3.2,2.21,4.43,6.15,2.95,9.59,0,0-6.15,11.31-10.08,16.48-3.69,5.16-12.79,3.93-12.79,3.93l-5.66,8.85M136.98,294.36c23.12,4.92,30,12.79,51.15,14.76,21.15,1.97,52.63,2.21,52.63,2.21-.98-8.61-1.72-16.97-1.72-25.58-23.12-3.93-31.97-5.16-39.35-14.26-7.38-9.1,1.48-22.38,1.48-22.38-3.69-3.69-8.36-5.66-13.53-5.66-6.64,11.31-18.69,18.2-31.97,18.44-3.44-.98-7.13-.25-9.84,2.21-3.2,2.21-6.89,1.72-15.49-1.72s-9.34,2.21-9.34,2.21c-1.23,19.18-5.9,17.46-8.36,19.92-2.21,2.21,1.48,4.92,23.85,9.59M267.56,258.46c8.85,6.89,20.17,9.1,30.99,6.64.98-.98,1.23-2.46.74-3.93-.49-1.23-1.48-2.21-2.95-2.71,0,0-79.43-33.94-84.35-35.9-5.66-2.71-12.54-1.97-17.46,1.97-3.2,3.44-4.67,8.12-3.93,12.79,13.53,2.46,16.72,9.1,16.72,9.1,20.9-1.48,41.81,2.71,60.5,12.05M244.93,281.58c0,3.69,1.97,36.15,1.97,36.15,3.93,2.71,9.1,3.44,13.77,1.97,4.92-16.48,7.38-33.94,6.89-51.15-2.21-6.64-5.66-8.12-23.61-12.05-11.07-2.95-22.38-4.18-33.69-3.69-4.92,1.97-7.62,7.62-6.15,12.79,1.48,6.89,11.31,10.33,11.31,10.33,9.84,2.71,19.67,4.92,29.76,6.39M256,342.56c2.71-.25,5.16-1.72,6.39-4.18s1.23-5.41,0-7.87c-2.71-4.67-8.36-6.89-13.77-5.41-4.18,1.23-5.16,6.64-5.16,6.64-2.46,9.1,6.39,11.56,12.79,10.82M274.94,270.02c-.25,13.53-2.46,27.05-5.9,40.08,21.39-2.46,41.56-10.82,58.28-24.35,29.26-23.12,34.18-26.56,45.25-30.49,7.38-2.71,15.25-3.69,22.87-2.71,5.16,0,9.59,2.71,11.8-.98,2.21-3.93-11.31-15-19.43-17.46-8.12-2.46-10.33-1.23-11.8,1.97-5.16,4.92-12.05,7.38-19.18,6.64-9.84-.25-19.43,4.18-25.58,11.8-15,15.25-36.89,21.15-57.54,15.74M414.62,249.85c1.72,5.16-6.39,7.87-6.39,7.87,19.18,16.72,21.15,51.15,21.15,51.15,4.18,0,8.61.25,12.79,1.23,5.66,4.18,13.53,3.69,18.69-1.23,3.93-3.93,8.85-7.13,14.26-9.1-10.33-19.43-23.85-36.89-39.84-51.89-10.08-7.38-24.1-18.69-28.53-22.13s-7.87-7.62-14.26-6.39c-3.69.49-6.64,2.95-8.12,6.39,12.54,4.43,23.36,13.03,30.74,24.1M243.21,351.17c8.12,11.07,22.38,15.49,35.41,11.07,24.35-4.92,40.82-22.38,49.43-21.89,7.13,0,14.02-.98,20.9-2.71-5.66-12.79-25.58-14.02-25.58-14.02-4.43,6.89-12.79,7.38-27.05,6.64-7.13-1.23-14.51,2.21-18.2,8.36,0,0-4.43,0-5.9-7.62-.74-3.93-2.95-7.62-6.15-10.08-1.23.74-2.21,2.21-2.46,3.69s.25,2.95,1.23,4.18c2.46,3.69,2.71,8.12.98,12.05-2.21,3.44-5.9,5.9-9.84,6.64s-8.12,0-11.56-2.46c-11.31-6.89-3.44-23.36-3.44-23.36h-19.43c-.25-.25,18.94,26.56,21.64,29.51M355.1,336.66c33.69,14.26,100.83,16.97,100.83,12.79s-4.18-2.95-4.18-2.95c-60.74-2.21-82.87-17.95-93.2-26.31-6.89-5.41-15-9.1-23.61-11.07-5.9.74-8.36,8.12-8.36,8.12,12.3.98,22.87,8.36,28.53,19.43"/>
    </g>
  </g>
</svg>