<?xml version="1.0" encoding="UTF-8"?>
<svg id="Layer_2" data-name="Layer 2" xmlns="http://www.w3.org/2000/svg" viewBox="0 0 512 273.15">
  <defs>
    <style>
      .cls-1 {
        fill: #e41e0a;
      }
    </style>
  </defs>
  <g id="Layer_1-2" data-name="Layer 1">
    <path class="cls-1" d="M495.02,273.15c-2.39,0-4.61-.43-6.65-1.28-2.05-.94-3.84-2.13-5.37-3.67s-2.73-3.33-3.58-5.37-1.28-4.35-1.28-6.65.43-4.61,1.28-6.74c.85-2.05,2.05-3.84,3.58-5.37s3.33-2.73,5.37-3.67c2.05-.94,4.27-1.36,6.65-1.36s4.52.43,6.57,1.36c2.05.85,3.92,2.13,5.46,3.67,1.54,1.54,2.73,3.33,3.58,5.37.94,2.05,1.36,4.35,1.36,6.74s-.43,4.61-1.36,6.65c-.85,2.05-2.05,3.84-3.58,5.37s-3.41,2.73-5.46,3.67c-2.05.85-4.27,1.28-6.57,1.28M495.02,242.69c-1.88,0-3.58.34-5.2,1.02-1.62.68-2.99,1.62-4.18,2.82s-2.13,2.56-2.9,4.18c-.68,1.62-1.02,3.41-1.02,5.37s.34,3.67,1.02,5.29c.77,1.62,1.71,3.07,2.9,4.27s2.56,2.13,4.18,2.82,3.33,1.02,5.2,1.02,3.58-.26,5.12-1.02c1.62-.68,2.99-1.62,4.18-2.82s2.13-2.64,2.82-4.27,1.02-3.41,1.02-5.29-.34-3.75-1.02-5.37-1.62-3.07-2.82-4.18c-1.19-1.19-2.64-2.13-4.18-2.82-1.54-.68-3.33-1.02-5.12-1.02M502.87,264.87h-4.01l-4.18-7.08h-3.07v7.08h-3.67v-17.74h8.62c1.02,0,1.96.09,2.82.17.85.17,1.54.43,2.13.77.51.43,1.02.94,1.36,1.71.34.68.51,1.62.51,2.82,0,3.24-1.62,5.03-4.86,5.2l4.35,7.08ZM496.65,254.64c.94,0,1.79-.17,2.39-.43.51-.34.77-.94.77-1.88,0-.51-.09-.85-.34-1.11-.26-.26-.6-.43-1.02-.6s-.94-.17-1.28-.26h-5.46v4.27h4.95ZM445.12,0l-102.37,273.15h66.79L511.91,0h-66.79ZM327.14,137.17s-21.16-23.97-38.3-40.52c-12.71-12.71-11.26-37.7,21.41-36.34h86.5L420.98,0H153.89C56.13,0,38.98,82.58,70.21,121.64l.51.6c1.28,1.45,2.13,2.22,2.13,2.22l41.12,43.42c27.38,29-12.97,63.13-42.57,33.52-.26-.17-23.71-24.91-47.69-50.16L0,214.54c4.35,4.52,9.13,9.47,14.5,15.01,23.54,27.98,48.45,40.61,71.57,42.91,32.67,3.75,66.45-8.96,86.33-42.91,95.37,113.28,220-23.46,154.74-92.39M229.47,201.4c-.6-.26-98.1-103.39-98.1-103.39-18.6-15.44-14.33-39.15,15.53-37.7h70.97c-16.89,36.34,12.97,64.23,12.97,64.23l41.12,43.42c27.47,28.92-12.97,63.04-42.48,33.44"/>
  </g>
</svg>