<svg width="137" height="113" viewBox="0 0 137 113" fill="none" xmlns="http://www.w3.org/2000/svg">
<g clip-path="url(#clip0_56_1678)">
<path d="M122.441 86.3653C93.5101 125.444 31.2934 111.483 10.4409 102.752C18.0087 104.591 32.4274 104.65 56.7817 92.993C96.8356 73.8151 122.441 86.3653 122.441 86.3653Z" fill="#003F5C"/>
<path d="M127.8 79.3851C119.304 76.2299 110.115 74.5024 100.52 74.5024C94.7322 74.5024 89.0858 75.1311 83.6567 76.3239C87.8695 72.9748 92.2351 68.3389 95.3256 61.5174C102.729 45.2008 92.9284 32.9737 81.7648 39.3958C71.7116 45.1715 68.5741 58.8792 68.5741 58.8792C54.878 102.335 0 95.1258 0 95.1258C0 95.1258 10.8405 90.6897 18.2437 80.7188C25.6411 70.7479 27.0219 59.7841 34.1196 48.1504C41.2232 36.5167 48.5207 27.5976 58.3388 25.9406C38.8729 24.2543 32.0749 15.6407 27.0689 10.0765C21.8866 4.32433 11.0755 5.76972 10.5937 5.83435C14.783 3.44299 19.3013 1.5628 24.0488 0.634452C27.9443 -0.129376 31.9632 -0.21751 35.8764 0.458184C39.4722 1.06925 42.9271 2.309 46.1645 3.97766C49.3139 5.6052 52.2517 7.62641 55.0014 9.86501C56.8993 11.4103 58.7618 12.9732 60.8065 14.3363C62.7983 15.6583 64.8842 16.8452 67.0523 17.8558C68.6622 18.6079 70.3132 19.266 72.0054 19.8241C78.2218 21.8747 84.6438 21.8571 91.1657 21.957C95.2845 22.0216 99.2153 21.8747 103.187 21.9805C109.163 22.1333 112.294 22.7972 116.513 24.1897C120.802 25.6057 124.657 28.0147 127.97 31.1288C129.909 32.9502 131.79 34.9597 132.982 37.3393C141.138 53.5971 134.046 68.4094 127.8 79.3851Z" fill="#1CCAD8"/>
</g>
<defs>
<clipPath id="clip0_56_1678">
<rect width="136.655" height="112.5" fill="white"/>
</clipPath>
</defs>
</svg>
